<svg width="168" height="71" viewBox="0 0 168 71" fill="none" xmlns="http://www.w3.org/2000/svg">
<g filter="url(#filter0_d_324_122)">
<path d="M7.24792 44.9799C17.0315 56.2619 58.7022 31.246 65.0012 51.9595" stroke="white"/>
<path d="M65.3567 52.4194C40.1471 40.3723 15.5636 67.1162 6.74792 44.2838" stroke="white"/>
</g>
<g filter="url(#filter1_d_324_122)">
<path d="M9.01739 51.7859C18.6338 65.1447 61.9718 37.2367 67.8172 61.5023" stroke="white"/>
<path d="M67.7937 61.764C42.8562 49.1631 17.6881 75.3577 9.37881 52.3362" stroke="white"/>
</g>
<g filter="url(#filter2_d_324_122)">
<path d="M17.4751 47.6956C8.98452 39.8877 31.937 10.7594 15.7479 4.97961" stroke="white" stroke-linecap="round"/>
<path d="M15.835 5.13532C23.0738 23.8978 1.72862 40.7311 17.9999 48" stroke="white" stroke-linecap="round"/>
</g>
<g filter="url(#filter3_d_324_122)">
<path d="M10.248 46.9799C1.75043 39.273 24.9418 9.83644 8.74817 4.12159" stroke="white" stroke-linecap="round"/>
<path d="M8.82361 4.27588C15.7287 22.9489 -4.40518 40.2867 11.2479 47.4799" stroke="white" stroke-linecap="round"/>
</g>
<path d="M31.464 24.296H35.528V36.776L33.64 37.032C32.9787 37.032 32.4453 36.84 32.04 36.456C31.656 36.0507 31.464 35.528 31.464 34.888V24.296ZM33.64 37.032V33.704H43.816C43.944 33.8747 44.0507 34.0987 44.136 34.376C44.2427 34.6533 44.296 34.9627 44.296 35.304C44.296 35.88 44.1573 36.3173 43.88 36.616C43.624 36.8933 43.272 37.032 42.824 37.032H33.64ZM35.528 28.84H31.464V17.576C31.656 17.5333 31.9227 17.48 32.264 17.416C32.6267 17.352 32.9893 17.32 33.352 17.32C34.12 17.32 34.6747 17.4587 35.016 17.736C35.3573 17.992 35.528 18.4827 35.528 19.208V28.84ZM47.0748 17.352C47.0748 16.7333 47.2881 16.2107 47.7148 15.784C48.1628 15.3573 48.7174 15.144 49.3788 15.144C50.0614 15.144 50.6054 15.3573 51.0108 15.784C51.4374 16.2107 51.6508 16.7333 51.6508 17.352C51.6508 17.9493 51.4374 18.472 51.0108 18.92C50.6054 19.3467 50.0614 19.56 49.3788 19.56C48.7174 19.56 48.1628 19.3467 47.7148 18.92C47.2881 18.472 47.0748 17.9493 47.0748 17.352ZM47.3948 28.552H51.3628V36.936C51.1921 37 50.9468 37.0533 50.6268 37.096C50.3068 37.16 49.9548 37.192 49.5708 37.192C48.8454 37.192 48.3014 37.064 47.9388 36.808C47.5761 36.5307 47.3948 36.0507 47.3948 35.368V28.552ZM51.3628 30.568H47.3948V21.992C47.5654 21.928 47.8108 21.8747 48.1308 21.832C48.4721 21.768 48.8348 21.736 49.2188 21.736C49.9654 21.736 50.5094 21.8747 50.8508 22.152C51.1921 22.408 51.3628 22.888 51.3628 23.592V30.568ZM69.5945 27.112V30.216H65.6585V27.272C65.6585 26.3333 65.3918 25.6507 64.8585 25.224C64.3252 24.776 63.6105 24.552 62.7145 24.552C62.0532 24.552 61.4558 24.6373 60.9225 24.808C60.4105 24.9573 59.9518 25.1387 59.5465 25.352V30.216H55.6105V25.096C55.6105 24.584 55.7172 24.168 55.9305 23.848C56.1438 23.5067 56.4638 23.1973 56.8905 22.92C57.5305 22.4933 58.3518 22.1413 59.3545 21.864C60.3785 21.5653 61.5092 21.416 62.7465 21.416C64.9012 21.416 66.5758 21.896 67.7705 22.856C68.9865 23.816 69.5945 25.2347 69.5945 27.112ZM55.6105 28.648H59.5465V36.936C59.3758 37 59.1305 37.0533 58.8105 37.096C58.4905 37.16 58.1385 37.192 57.7545 37.192C57.0292 37.192 56.4852 37.064 56.1225 36.808C55.7812 36.5307 55.6105 36.0507 55.6105 35.368V28.648ZM65.6585 28.648H69.5945V36.936C69.4452 37 69.1998 37.0533 68.8585 37.096C68.5385 37.16 68.1972 37.192 67.8345 37.192C67.0878 37.192 66.5332 37.064 66.1705 36.808C65.8292 36.5307 65.6585 36.0507 65.6585 35.368V28.648ZM79.5275 30.632L76.7755 28.808L84.0395 21.576C84.8288 21.5973 85.4582 21.7893 85.9275 22.152C86.3968 22.4933 86.6315 22.9413 86.6315 23.496C86.6315 23.944 86.4715 24.3493 86.1515 24.712C85.8528 25.0747 85.3942 25.5227 84.7755 26.056L79.5275 30.632ZM76.8715 29.384L79.9115 27.944L87.3675 34.952C87.3035 35.656 87.0902 36.2107 86.7275 36.616C86.3648 37.0213 85.8635 37.224 85.2235 37.224C84.7328 37.224 84.2848 37.1067 83.8795 36.872C83.4742 36.616 83.0582 36.232 82.6315 35.72L76.8715 29.384ZM73.7995 28.488L77.7355 28.68V36.936C77.5648 37 77.3195 37.0533 76.9995 37.096C76.6795 37.16 76.3275 37.192 75.9435 37.192C75.2182 37.192 74.6742 37.064 74.3115 36.808C73.9702 36.5307 73.7995 36.0507 73.7995 35.368V28.488ZM77.7355 30.696L73.7995 30.504V16.2C73.9702 16.1573 74.2155 16.104 74.5355 16.04C74.8555 15.976 75.2075 15.944 75.5915 15.944C76.3382 15.944 76.8822 16.0827 77.2235 16.36C77.5648 16.616 77.7355 17.0853 77.7355 17.768V30.696ZM90.7765 24.296H94.8405V36.776L92.9525 37.032C92.2912 37.032 91.7578 36.84 91.3525 36.456C90.9685 36.0507 90.7765 35.528 90.7765 34.888V24.296ZM92.9525 37.032V33.704H103.129C103.257 33.8747 103.363 34.0987 103.449 34.376C103.555 34.6533 103.609 34.9627 103.609 35.304C103.609 35.88 103.47 36.3173 103.193 36.616C102.937 36.8933 102.585 37.032 102.137 37.032H92.9525ZM94.8405 28.84H90.7765V17.576C90.9685 17.5333 91.2352 17.48 91.5765 17.416C91.9392 17.352 92.3018 17.32 92.6645 17.32C93.4325 17.32 93.9872 17.4587 94.3285 17.736C94.6698 17.992 94.8405 18.4827 94.8405 19.208V28.84ZM121.115 29.416C121.115 31.0587 120.795 32.488 120.155 33.704C119.515 34.8987 118.608 35.8267 117.435 36.488C116.283 37.128 114.917 37.448 113.339 37.448C111.76 37.448 110.384 37.128 109.211 36.488C108.037 35.8267 107.12 34.8987 106.459 33.704C105.819 32.5093 105.499 31.08 105.499 29.416C105.499 27.7733 105.829 26.3547 106.491 25.16C107.152 23.9653 108.069 23.048 109.243 22.408C110.416 21.7467 111.781 21.416 113.339 21.416C114.896 21.416 116.251 21.7467 117.403 22.408C118.576 23.048 119.483 23.976 120.123 25.192C120.784 26.3867 121.115 27.7947 121.115 29.416ZM113.339 24.552C112.165 24.552 111.237 24.9787 110.555 25.832C109.893 26.6853 109.563 27.88 109.563 29.416C109.563 30.9947 109.893 32.2107 110.555 33.064C111.216 33.896 112.144 34.312 113.339 34.312C114.512 34.312 115.429 33.8853 116.091 33.032C116.752 32.1787 117.083 30.9733 117.083 29.416C117.083 27.9013 116.752 26.7173 116.091 25.864C115.429 24.9893 114.512 24.552 113.339 24.552ZM139.333 29.416C139.333 31.0587 139.014 32.488 138.374 33.704C137.734 34.8987 136.827 35.8267 135.654 36.488C134.502 37.128 133.136 37.448 131.558 37.448C129.979 37.448 128.603 37.128 127.43 36.488C126.256 35.8267 125.339 34.8987 124.678 33.704C124.038 32.5093 123.718 31.08 123.718 29.416C123.718 27.7733 124.048 26.3547 124.71 25.16C125.371 23.9653 126.288 23.048 127.462 22.408C128.635 21.7467 130 21.416 131.558 21.416C133.115 21.416 134.47 21.7467 135.622 22.408C136.795 23.048 137.702 23.976 138.342 25.192C139.003 26.3867 139.333 27.7947 139.333 29.416ZM131.558 24.552C130.384 24.552 129.456 24.9787 128.774 25.832C128.112 26.6853 127.782 27.88 127.782 29.416C127.782 30.9947 128.112 32.2107 128.774 33.064C129.435 33.896 130.363 34.312 131.558 34.312C132.731 34.312 133.648 33.8853 134.31 33.032C134.971 32.1787 135.302 30.9733 135.302 29.416C135.302 27.9013 134.971 26.7173 134.31 25.864C133.648 24.9893 132.731 24.552 131.558 24.552ZM155.92 26.536V30.184H151.984V26.984C151.984 26.152 151.728 25.544 151.216 25.16C150.726 24.7547 150.096 24.552 149.328 24.552C148.774 24.552 148.262 24.6373 147.792 24.808C147.344 24.9573 146.96 25.1387 146.64 25.352V30.184H142.704V25.096C142.704 24.584 142.811 24.168 143.024 23.848C143.238 23.5067 143.558 23.1973 143.984 22.92C144.646 22.472 145.456 22.1093 146.416 21.832C147.398 21.5547 148.411 21.416 149.456 21.416C150.502 21.416 151.462 21.576 152.336 21.896C153.211 22.216 153.926 22.6853 154.48 23.304C154.63 23.432 154.768 23.56 154.896 23.688C155.024 23.816 155.131 23.9653 155.216 24.136C155.408 24.456 155.568 24.8293 155.696 25.256C155.846 25.6613 155.92 26.088 155.92 26.536ZM165.168 26.856V30.184H161.232V26.984C161.232 26.152 160.998 25.544 160.528 25.16C160.059 24.7547 159.43 24.552 158.64 24.552C158.064 24.552 157.499 24.6693 156.944 24.904C156.411 25.1387 155.952 25.448 155.568 25.832L153.584 23.432C154.246 22.8773 155.024 22.408 155.92 22.024C156.816 21.6187 157.883 21.416 159.12 21.416C160.251 21.416 161.275 21.5973 162.192 21.96C163.11 22.3227 163.835 22.9093 164.368 23.72C164.902 24.5307 165.168 25.576 165.168 26.856ZM142.704 28.648H146.64V36.936C146.47 37 146.224 37.0533 145.904 37.096C145.584 37.16 145.232 37.192 144.848 37.192C144.123 37.192 143.579 37.064 143.216 36.808C142.875 36.5307 142.704 36.0507 142.704 35.368V28.648ZM151.984 28.648H155.92V36.936C155.75 37 155.494 37.0533 155.152 37.096C154.832 37.16 154.491 37.192 154.128 37.192C153.382 37.192 152.838 37.064 152.496 36.808C152.155 36.5307 151.984 36.0507 151.984 35.368V28.648ZM161.232 28.648H165.168V36.936C165.019 37 164.774 37.0533 164.432 37.096C164.112 37.16 163.771 37.192 163.408 37.192C162.662 37.192 162.107 37.064 161.744 36.808C161.403 36.5307 161.232 36.0507 161.232 35.368V28.648Z" fill="white"/>
<defs>
<filter id="filter0_d_324_122" x="2.28162" y="42.934" width="67.2843" height="19.4349" filterUnits="userSpaceOnUse" color-interpolation-filters="sRGB">
<feFlood flood-opacity="0" result="BackgroundImageFix"/>
<feColorMatrix in="SourceAlpha" type="matrix" values="0 0 0 0 0 0 0 0 0 0 0 0 0 0 0 0 0 0 127 0" result="hardAlpha"/>
<feOffset dy="4"/>
<feGaussianBlur stdDeviation="2"/>
<feComposite in2="hardAlpha" operator="out"/>
<feColorMatrix type="matrix" values="0 0 0 0 0 0 0 0 0 0 0 0 0 0 0 0 0 0 0.25 0"/>
<feBlend mode="normal" in2="BackgroundImageFix" result="effect1_dropShadow_324_122"/>
<feBlend mode="normal" in="SourceGraphic" in2="effect1_dropShadow_324_122" result="shape"/>
</filter>
<filter id="filter1_d_324_122" x="4.61157" y="50.6667" width="67.6917" height="20.0449" filterUnits="userSpaceOnUse" color-interpolation-filters="sRGB">
<feFlood flood-opacity="0" result="BackgroundImageFix"/>
<feColorMatrix in="SourceAlpha" type="matrix" values="0 0 0 0 0 0 0 0 0 0 0 0 0 0 0 0 0 0 127 0" result="hardAlpha"/>
<feOffset dy="4"/>
<feGaussianBlur stdDeviation="2"/>
<feComposite in2="hardAlpha" operator="out"/>
<feColorMatrix type="matrix" values="0 0 0 0 0 0 0 0 0 0 0 0 0 0 0 0 0 0 0.25 0"/>
<feBlend mode="normal" in2="BackgroundImageFix" result="effect1_dropShadow_324_122"/>
<feBlend mode="normal" in="SourceGraphic" in2="effect1_dropShadow_324_122" result="shape"/>
</filter>
<filter id="filter2_d_324_122" x="7.21912" y="4.47949" width="18.9724" height="52.0195" filterUnits="userSpaceOnUse" color-interpolation-filters="sRGB">
<feFlood flood-opacity="0" result="BackgroundImageFix"/>
<feColorMatrix in="SourceAlpha" type="matrix" values="0 0 0 0 0 0 0 0 0 0 0 0 0 0 0 0 0 0 127 0" result="hardAlpha"/>
<feOffset dy="4"/>
<feGaussianBlur stdDeviation="2"/>
<feComposite in2="hardAlpha" operator="out"/>
<feColorMatrix type="matrix" values="0 0 0 0 0 0 0 0 0 0 0 0 0 0 0 0 0 0 0.25 0"/>
<feBlend mode="normal" in2="BackgroundImageFix" result="effect1_dropShadow_324_122"/>
<feBlend mode="normal" in="SourceGraphic" in2="effect1_dropShadow_324_122" result="shape"/>
</filter>
<filter id="filter3_d_324_122" x="0.624268" y="3.62146" width="18.5265" height="52.3574" filterUnits="userSpaceOnUse" color-interpolation-filters="sRGB">
<feFlood flood-opacity="0" result="BackgroundImageFix"/>
<feColorMatrix in="SourceAlpha" type="matrix" values="0 0 0 0 0 0 0 0 0 0 0 0 0 0 0 0 0 0 127 0" result="hardAlpha"/>
<feOffset dy="4"/>
<feGaussianBlur stdDeviation="2"/>
<feComposite in2="hardAlpha" operator="out"/>
<feColorMatrix type="matrix" values="0 0 0 0 0 0 0 0 0 0 0 0 0 0 0 0 0 0 0.25 0"/>
<feBlend mode="normal" in2="BackgroundImageFix" result="effect1_dropShadow_324_122"/>
<feBlend mode="normal" in="SourceGraphic" in2="effect1_dropShadow_324_122" result="shape"/>
</filter>
</defs>
</svg>
