<svg width="221" height="61" viewBox="0 0 221 61" fill="none" xmlns="http://www.w3.org/2000/svg">
<path d="M3.5 32L15.5 37" stroke="white" stroke-width="2"/>
<path d="M16 53L50 30.5" stroke="white" stroke-width="2"/>
<path d="M2.06494 18.1846L25.8108 29.8361L3.53243 46.1461L49.232 15.7091" stroke="white" stroke-width="2"/>
<path d="M27.014 2.14218L26.5 1.83425L25.986 2.14218L3.03638 15.8922L2.55033 16.1834V16.75V44.25V44.8166L3.03638 45.1078L25.986 58.8578L26.5 59.1657L27.014 58.8578L49.9636 45.1078L50.4497 44.8166V44.25V16.75V16.1834L49.9636 15.8922L27.014 2.14218Z" stroke="white" stroke-width="2"/>
<path d="M16 9L25.7436 16L36 9" stroke="white" stroke-width="2"/>
<path d="M70.72 23.672C71.776 23.672 72.64 23.832 73.312 24.152C74 24.456 74.608 24.816 75.136 25.232C75.456 25.472 75.696 25.504 75.856 25.328C76.032 25.136 76.152 24.696 76.216 24.008H76.768C76.736 24.632 76.712 25.4 76.696 26.312C76.68 27.224 76.672 28.424 76.672 29.912H76.12C76.056 29.16 75.952 28.504 75.808 27.944C75.68 27.384 75.488 26.888 75.232 26.456C74.976 26.024 74.608 25.64 74.128 25.304C73.76 25 73.344 24.768 72.88 24.608C72.432 24.432 71.968 24.344 71.488 24.344C70.608 24.344 69.864 24.592 69.256 25.088C68.664 25.568 68.184 26.208 67.816 27.008C67.464 27.792 67.208 28.672 67.048 29.648C66.904 30.608 66.832 31.576 66.832 32.552C66.832 33.544 66.912 34.528 67.072 35.504C67.232 36.464 67.488 37.336 67.84 38.12C68.208 38.904 68.696 39.536 69.304 40.016C69.912 40.48 70.656 40.712 71.536 40.712C72 40.712 72.456 40.632 72.904 40.472C73.368 40.312 73.784 40.08 74.152 39.776C74.856 39.296 75.328 38.672 75.568 37.904C75.824 37.12 76.008 36.104 76.12 34.856H76.672C76.672 36.408 76.68 37.664 76.696 38.624C76.712 39.568 76.736 40.36 76.768 41H76.216C76.152 40.312 76.04 39.88 75.88 39.704C75.736 39.528 75.488 39.552 75.136 39.776C74.544 40.192 73.912 40.56 73.24 40.88C72.584 41.184 71.736 41.336 70.696 41.336C68.952 41.336 67.416 40.992 66.088 40.304C64.776 39.616 63.752 38.624 63.016 37.328C62.296 36.032 61.936 34.472 61.936 32.648C61.936 30.856 62.312 29.288 63.064 27.944C63.816 26.6 64.848 25.552 66.16 24.8C67.488 24.048 69.008 23.672 70.72 23.672ZM83.8225 22.232V30.248C84.2225 29.512 84.7505 28.992 85.4065 28.688C86.0785 28.384 86.8465 28.232 87.7105 28.232C88.4145 28.232 88.9745 28.32 89.3905 28.496C89.8225 28.672 90.1505 28.896 90.3745 29.168C90.6305 29.472 90.8145 29.864 90.9265 30.344C91.0385 30.824 91.0945 31.472 91.0945 32.288V38.768C91.0945 39.44 91.1985 39.896 91.4065 40.136C91.6305 40.376 92.0065 40.496 92.5345 40.496V41C92.2305 40.984 91.7585 40.968 91.1185 40.952C90.4945 40.92 89.8785 40.904 89.2705 40.904C88.6305 40.904 88.0065 40.92 87.3985 40.952C86.7905 40.968 86.3265 40.984 86.0065 41V40.496C86.4545 40.496 86.7665 40.376 86.9425 40.136C87.1185 39.896 87.2065 39.44 87.2065 38.768V31.136C87.2065 30.768 87.1665 30.456 87.0865 30.2C87.0065 29.928 86.8705 29.728 86.6785 29.6C86.5025 29.456 86.2385 29.384 85.8865 29.384C85.5185 29.384 85.1745 29.48 84.8545 29.672C84.5505 29.848 84.3025 30.112 84.1105 30.464C83.9185 30.8 83.8225 31.192 83.8225 31.64V38.768C83.8225 39.44 83.9105 39.896 84.0865 40.136C84.2785 40.376 84.5905 40.496 85.0225 40.496V41C84.7345 40.984 84.3025 40.968 83.7265 40.952C83.1505 40.92 82.5585 40.904 81.9505 40.904C81.3105 40.904 80.6545 40.92 79.9825 40.952C79.3265 40.968 78.8305 40.984 78.4945 41V40.496C79.0225 40.496 79.3905 40.376 79.5985 40.136C79.8225 39.896 79.9345 39.44 79.9345 38.768V25.112C79.9345 24.392 79.8305 23.864 79.6225 23.528C79.4305 23.176 79.0545 23 78.4945 23V22.496C79.0065 22.544 79.5025 22.568 79.9825 22.568C80.7185 22.568 81.4065 22.544 82.0465 22.496C82.6865 22.432 83.2785 22.344 83.8225 22.232ZM96.6441 41.168C95.9081 41.168 95.3001 41.032 94.8201 40.76C94.3401 40.472 93.9881 40.096 93.7641 39.632C93.5401 39.168 93.4281 38.672 93.4281 38.144C93.4281 37.472 93.5801 36.92 93.8841 36.488C94.2041 36.056 94.6121 35.712 95.1081 35.456C95.6041 35.184 96.1241 34.96 96.6681 34.784C97.2121 34.608 97.7321 34.44 98.2281 34.28C98.7241 34.104 99.1241 33.904 99.4281 33.68C99.7321 33.44 99.8841 33.136 99.8841 32.768V30.776C99.8841 30.424 99.8281 30.096 99.7161 29.792C99.6201 29.472 99.4361 29.216 99.1641 29.024C98.9081 28.816 98.5481 28.712 98.0841 28.712C97.7961 28.712 97.5161 28.752 97.2441 28.832C96.9721 28.912 96.7321 29.04 96.5241 29.216C97.0361 29.392 97.4121 29.656 97.6521 30.008C97.9081 30.36 98.0361 30.752 98.0361 31.184C98.0361 31.776 97.8281 32.248 97.4121 32.6C97.0121 32.936 96.5321 33.104 95.9721 33.104C95.3641 33.104 94.8921 32.912 94.5561 32.528C94.2361 32.144 94.0761 31.68 94.0761 31.136C94.0761 30.656 94.1961 30.256 94.4361 29.936C94.6761 29.6 95.0281 29.296 95.4921 29.024C95.9561 28.752 96.5161 28.552 97.1721 28.424C97.8281 28.296 98.5241 28.232 99.2601 28.232C100.012 28.232 100.7 28.312 101.324 28.472C101.964 28.616 102.508 28.912 102.956 29.36C103.308 29.728 103.532 30.176 103.628 30.704C103.724 31.232 103.772 31.904 103.772 32.72V39.2C103.772 39.6 103.804 39.88 103.868 40.04C103.948 40.184 104.068 40.256 104.228 40.256C104.372 40.256 104.508 40.216 104.636 40.136C104.764 40.056 104.892 39.968 105.02 39.872L105.284 40.28C104.932 40.568 104.516 40.792 104.036 40.952C103.556 41.096 103.036 41.168 102.476 41.168C101.836 41.168 101.332 41.088 100.964 40.928C100.612 40.752 100.356 40.52 100.196 40.232C100.052 39.944 99.9721 39.624 99.9561 39.272C99.6041 39.848 99.1641 40.312 98.6361 40.664C98.1081 41 97.4441 41.168 96.6441 41.168ZM98.6361 39.44C98.8921 39.44 99.1161 39.392 99.3081 39.296C99.5161 39.184 99.7081 39 99.8841 38.744V33.752C99.7561 33.976 99.5801 34.192 99.3561 34.4C99.1481 34.592 98.9241 34.792 98.6841 35C98.4441 35.192 98.2121 35.408 97.9881 35.648C97.7801 35.888 97.6041 36.176 97.4601 36.512C97.3321 36.832 97.2681 37.224 97.2681 37.688C97.2681 38.312 97.3961 38.76 97.6521 39.032C97.9081 39.304 98.2361 39.44 98.6361 39.44ZM109.182 22.304C109.934 22.304 110.518 22.472 110.934 22.808C111.366 23.144 111.582 23.632 111.582 24.272C111.582 24.912 111.366 25.4 110.934 25.736C110.518 26.072 109.934 26.24 109.182 26.24C108.43 26.24 107.838 26.072 107.406 25.736C106.99 25.4 106.782 24.912 106.782 24.272C106.782 23.632 106.99 23.144 107.406 22.808C107.838 22.472 108.43 22.304 109.182 22.304ZM111.294 28.304V38.768C111.294 39.44 111.398 39.896 111.606 40.136C111.83 40.376 112.206 40.496 112.734 40.496V41C112.414 40.984 111.942 40.968 111.318 40.952C110.694 40.92 110.062 40.904 109.422 40.904C108.782 40.904 108.126 40.92 107.454 40.952C106.798 40.968 106.302 40.984 105.966 41V40.496C106.494 40.496 106.862 40.376 107.07 40.136C107.294 39.896 107.406 39.44 107.406 38.768V31.184C107.406 30.464 107.302 29.936 107.094 29.6C106.886 29.248 106.51 29.072 105.966 29.072V28.568C106.478 28.616 106.974 28.64 107.454 28.64C108.174 28.64 108.854 28.616 109.494 28.568C110.15 28.504 110.75 28.416 111.294 28.304ZM122.916 28.232C123.62 28.232 124.18 28.32 124.596 28.496C125.028 28.672 125.356 28.896 125.58 29.168C125.836 29.472 126.02 29.864 126.132 30.344C126.26 30.824 126.324 31.472 126.324 32.288V38.768C126.324 39.44 126.428 39.896 126.636 40.136C126.86 40.376 127.236 40.496 127.764 40.496V41C127.444 40.984 126.964 40.968 126.324 40.952C125.7 40.92 125.092 40.904 124.5 40.904C123.844 40.904 123.212 40.92 122.604 40.952C121.996 40.968 121.54 40.984 121.236 41V40.496C121.684 40.496 121.996 40.376 122.172 40.136C122.348 39.896 122.436 39.44 122.436 38.768V31.136C122.436 30.768 122.396 30.456 122.316 30.2C122.236 29.928 122.1 29.728 121.908 29.6C121.716 29.456 121.444 29.384 121.092 29.384C120.724 29.384 120.38 29.48 120.06 29.672C119.756 29.864 119.508 30.136 119.316 30.488C119.14 30.824 119.052 31.208 119.052 31.64V38.768C119.052 39.44 119.14 39.896 119.316 40.136C119.492 40.376 119.804 40.496 120.252 40.496V41C119.948 40.984 119.508 40.968 118.932 40.952C118.356 40.92 117.772 40.904 117.18 40.904C116.524 40.904 115.868 40.92 115.212 40.952C114.556 40.968 114.06 40.984 113.724 41V40.496C114.252 40.496 114.62 40.376 114.828 40.136C115.052 39.896 115.164 39.44 115.164 38.768V31.184C115.164 30.464 115.06 29.936 114.852 29.6C114.644 29.248 114.268 29.072 113.724 29.072V28.568C114.236 28.616 114.732 28.64 115.212 28.64C115.932 28.64 116.612 28.616 117.252 28.568C117.908 28.504 118.508 28.416 119.052 28.304V30.248C119.436 29.512 119.956 28.992 120.612 28.688C121.284 28.384 122.052 28.232 122.916 28.232ZM137.564 23.672C138.62 23.672 139.484 23.832 140.156 24.152C140.844 24.456 141.452 24.816 141.98 25.232C142.3 25.472 142.54 25.504 142.7 25.328C142.876 25.136 142.996 24.696 143.06 24.008H143.612C143.58 24.632 143.556 25.4 143.54 26.312C143.524 27.224 143.516 28.424 143.516 29.912H142.964C142.9 29.16 142.796 28.504 142.652 27.944C142.524 27.384 142.332 26.888 142.076 26.456C141.82 26.024 141.452 25.64 140.972 25.304C140.604 25 140.188 24.768 139.724 24.608C139.276 24.432 138.812 24.344 138.332 24.344C137.452 24.344 136.708 24.592 136.1 25.088C135.508 25.568 135.028 26.208 134.66 27.008C134.308 27.792 134.052 28.672 133.892 29.648C133.748 30.608 133.676 31.576 133.676 32.552C133.676 33.544 133.756 34.528 133.916 35.504C134.076 36.464 134.332 37.336 134.684 38.12C135.052 38.904 135.54 39.536 136.148 40.016C136.756 40.48 137.5 40.712 138.38 40.712C138.844 40.712 139.3 40.632 139.748 40.472C140.212 40.312 140.628 40.08 140.996 39.776C141.7 39.296 142.172 38.672 142.412 37.904C142.668 37.12 142.852 36.104 142.964 34.856H143.516C143.516 36.408 143.524 37.664 143.54 38.624C143.556 39.568 143.58 40.36 143.612 41H143.06C142.996 40.312 142.884 39.88 142.724 39.704C142.58 39.528 142.332 39.552 141.98 39.776C141.388 40.192 140.756 40.56 140.084 40.88C139.428 41.184 138.58 41.336 137.54 41.336C135.796 41.336 134.26 40.992 132.932 40.304C131.62 39.616 130.596 38.624 129.86 37.328C129.14 36.032 128.78 34.472 128.78 32.648C128.78 30.856 129.156 29.288 129.908 27.944C130.66 26.6 131.692 25.552 133.004 24.8C134.332 24.048 135.852 23.672 137.564 23.672ZM153.954 28.232C154.498 28.232 154.93 28.352 155.25 28.592C155.57 28.816 155.802 29.112 155.946 29.48C156.09 29.832 156.162 30.184 156.162 30.536C156.162 31.192 155.97 31.72 155.586 32.12C155.218 32.52 154.73 32.72 154.122 32.72C153.482 32.72 152.994 32.576 152.658 32.288C152.322 31.984 152.154 31.584 152.154 31.088C152.154 30.592 152.258 30.184 152.466 29.864C152.69 29.544 152.962 29.272 153.282 29.048C153.042 29.016 152.81 29.048 152.586 29.144C152.33 29.208 152.09 29.328 151.866 29.504C151.642 29.68 151.45 29.888 151.29 30.128C151.13 30.368 151.002 30.632 150.906 30.92C150.826 31.192 150.786 31.472 150.786 31.76V38.528C150.786 39.296 150.954 39.816 151.29 40.088C151.642 40.36 152.194 40.496 152.946 40.496V41C152.578 40.984 152.034 40.968 151.314 40.952C150.594 40.92 149.85 40.904 149.082 40.904C148.394 40.904 147.698 40.92 146.994 40.952C146.306 40.968 145.794 40.984 145.458 41V40.496C145.986 40.496 146.354 40.376 146.562 40.136C146.786 39.896 146.898 39.44 146.898 38.768V31.184C146.898 30.464 146.794 29.936 146.586 29.6C146.378 29.248 146.002 29.072 145.458 29.072V28.568C145.97 28.616 146.466 28.64 146.946 28.64C147.666 28.64 148.346 28.616 148.986 28.568C149.642 28.504 150.242 28.416 150.786 28.304V30.272C150.978 29.856 151.226 29.496 151.53 29.192C151.85 28.888 152.21 28.656 152.61 28.496C153.026 28.32 153.474 28.232 153.954 28.232ZM160.089 41.168C159.353 41.168 158.745 41.032 158.265 40.76C157.785 40.472 157.433 40.096 157.209 39.632C156.985 39.168 156.873 38.672 156.873 38.144C156.873 37.472 157.025 36.92 157.329 36.488C157.649 36.056 158.057 35.712 158.553 35.456C159.049 35.184 159.569 34.96 160.113 34.784C160.657 34.608 161.177 34.44 161.673 34.28C162.169 34.104 162.569 33.904 162.873 33.68C163.177 33.44 163.329 33.136 163.329 32.768V30.776C163.329 30.424 163.273 30.096 163.161 29.792C163.065 29.472 162.881 29.216 162.609 29.024C162.353 28.816 161.993 28.712 161.529 28.712C161.241 28.712 160.961 28.752 160.689 28.832C160.417 28.912 160.177 29.04 159.969 29.216C160.481 29.392 160.857 29.656 161.097 30.008C161.353 30.36 161.481 30.752 161.481 31.184C161.481 31.776 161.273 32.248 160.857 32.6C160.457 32.936 159.977 33.104 159.417 33.104C158.809 33.104 158.337 32.912 158.001 32.528C157.681 32.144 157.521 31.68 157.521 31.136C157.521 30.656 157.641 30.256 157.881 29.936C158.121 29.6 158.473 29.296 158.937 29.024C159.401 28.752 159.961 28.552 160.617 28.424C161.273 28.296 161.969 28.232 162.705 28.232C163.457 28.232 164.145 28.312 164.769 28.472C165.409 28.616 165.953 28.912 166.401 29.36C166.753 29.728 166.977 30.176 167.073 30.704C167.169 31.232 167.217 31.904 167.217 32.72V39.2C167.217 39.6 167.249 39.88 167.313 40.04C167.393 40.184 167.513 40.256 167.673 40.256C167.817 40.256 167.953 40.216 168.081 40.136C168.209 40.056 168.337 39.968 168.465 39.872L168.729 40.28C168.377 40.568 167.961 40.792 167.481 40.952C167.001 41.096 166.481 41.168 165.921 41.168C165.281 41.168 164.777 41.088 164.409 40.928C164.057 40.752 163.801 40.52 163.641 40.232C163.497 39.944 163.417 39.624 163.401 39.272C163.049 39.848 162.609 40.312 162.081 40.664C161.553 41 160.889 41.168 160.089 41.168ZM162.081 39.44C162.337 39.44 162.561 39.392 162.753 39.296C162.961 39.184 163.153 39 163.329 38.744V33.752C163.201 33.976 163.025 34.192 162.801 34.4C162.593 34.592 162.369 34.792 162.129 35C161.889 35.192 161.657 35.408 161.433 35.648C161.225 35.888 161.049 36.176 160.905 36.512C160.777 36.832 160.713 37.224 160.713 37.688C160.713 38.312 160.841 38.76 161.097 39.032C161.353 39.304 161.681 39.44 162.081 39.44ZM175.867 22.232C176.475 22.232 176.995 22.312 177.427 22.472C177.875 22.616 178.259 22.816 178.579 23.072C178.819 23.248 179.019 23.504 179.179 23.84C179.355 24.16 179.443 24.536 179.443 24.968C179.443 25.432 179.267 25.848 178.915 26.216C178.579 26.584 178.139 26.768 177.595 26.768C177.003 26.768 176.523 26.608 176.155 26.288C175.787 25.952 175.603 25.496 175.603 24.92C175.603 24.488 175.731 24.096 175.987 23.744C176.243 23.376 176.627 23.12 177.139 22.976C177.091 22.896 177.003 22.832 176.875 22.784C176.747 22.72 176.579 22.688 176.371 22.688C176.083 22.688 175.843 22.736 175.651 22.832C175.459 22.928 175.299 23.064 175.171 23.24C175.011 23.448 174.891 23.744 174.811 24.128C174.747 24.512 174.715 25.096 174.715 25.88V28.592H177.283V29.072H174.715V38.528C174.715 39.312 174.907 39.84 175.291 40.112C175.675 40.368 176.203 40.496 176.875 40.496V41C176.443 40.984 175.835 40.968 175.051 40.952C174.283 40.92 173.467 40.904 172.603 40.904C171.979 40.904 171.363 40.92 170.755 40.952C170.147 40.968 169.691 40.984 169.387 41V40.496C169.915 40.496 170.283 40.376 170.491 40.136C170.715 39.896 170.827 39.44 170.827 38.768V29.072H169.291V28.592H170.827C170.827 27.648 170.875 26.864 170.971 26.24C171.083 25.6 171.251 25.064 171.475 24.632C171.715 24.184 172.035 23.784 172.435 23.432C172.787 23.096 173.267 22.816 173.875 22.592C174.499 22.352 175.163 22.232 175.867 22.232ZM183.221 24.656V28.568H185.813V29.048H183.221V38.864C183.221 39.264 183.293 39.552 183.437 39.728C183.581 39.888 183.797 39.968 184.085 39.968C184.325 39.968 184.573 39.888 184.829 39.728C185.101 39.568 185.349 39.296 185.573 38.912L185.957 39.152C185.653 39.808 185.229 40.336 184.685 40.736C184.157 41.136 183.461 41.336 182.597 41.336C182.069 41.336 181.597 41.264 181.181 41.12C180.781 40.992 180.445 40.792 180.173 40.52C179.821 40.168 179.589 39.736 179.477 39.224C179.381 38.696 179.333 38.016 179.333 37.184V29.048H177.413V28.568H179.333V25.568C180.085 25.568 180.773 25.496 181.397 25.352C182.037 25.208 182.645 24.976 183.221 24.656ZM192.598 28.232C194.006 28.232 195.11 28.648 195.91 29.48C196.71 30.312 197.11 31.68 197.11 33.584H189.406L189.382 33.128H193.846C193.878 32.344 193.846 31.624 193.75 30.968C193.654 30.296 193.494 29.76 193.27 29.36C193.062 28.96 192.782 28.76 192.43 28.76C191.95 28.76 191.542 29.104 191.206 29.792C190.87 30.48 190.662 31.648 190.582 33.296L190.678 33.464C190.646 33.64 190.63 33.824 190.63 34.016C190.63 34.192 190.63 34.384 190.63 34.592C190.63 35.696 190.774 36.576 191.062 37.232C191.366 37.888 191.742 38.352 192.19 38.624C192.638 38.896 193.102 39.032 193.582 39.032C193.854 39.032 194.158 38.992 194.494 38.912C194.83 38.832 195.182 38.664 195.55 38.408C195.918 38.152 196.27 37.776 196.606 37.28L197.014 37.424C196.838 38.048 196.534 38.664 196.102 39.272C195.686 39.864 195.15 40.36 194.494 40.76C193.838 41.144 193.046 41.336 192.118 41.336C191.062 41.336 190.118 41.12 189.286 40.688C188.454 40.24 187.79 39.544 187.294 38.6C186.814 37.64 186.574 36.392 186.574 34.856C186.574 33.336 186.838 32.088 187.366 31.112C187.894 30.136 188.614 29.416 189.526 28.952C190.438 28.472 191.462 28.232 192.598 28.232ZM206.712 28.232C207.256 28.232 207.688 28.352 208.008 28.592C208.328 28.816 208.56 29.112 208.704 29.48C208.848 29.832 208.92 30.184 208.92 30.536C208.92 31.192 208.728 31.72 208.344 32.12C207.976 32.52 207.488 32.72 206.88 32.72C206.24 32.72 205.752 32.576 205.416 32.288C205.08 31.984 204.912 31.584 204.912 31.088C204.912 30.592 205.016 30.184 205.224 29.864C205.448 29.544 205.72 29.272 206.04 29.048C205.8 29.016 205.568 29.048 205.344 29.144C205.088 29.208 204.848 29.328 204.624 29.504C204.4 29.68 204.208 29.888 204.048 30.128C203.888 30.368 203.76 30.632 203.664 30.92C203.584 31.192 203.544 31.472 203.544 31.76V38.528C203.544 39.296 203.712 39.816 204.048 40.088C204.4 40.36 204.952 40.496 205.704 40.496V41C205.336 40.984 204.792 40.968 204.072 40.952C203.352 40.92 202.608 40.904 201.84 40.904C201.152 40.904 200.456 40.92 199.752 40.952C199.064 40.968 198.552 40.984 198.216 41V40.496C198.744 40.496 199.112 40.376 199.32 40.136C199.544 39.896 199.656 39.44 199.656 38.768V31.184C199.656 30.464 199.552 29.936 199.344 29.6C199.136 29.248 198.76 29.072 198.216 29.072V28.568C198.728 28.616 199.224 28.64 199.704 28.64C200.424 28.64 201.104 28.616 201.744 28.568C202.4 28.504 203 28.416 203.544 28.304V30.272C203.736 29.856 203.984 29.496 204.288 29.192C204.608 28.888 204.968 28.656 205.368 28.496C205.784 28.32 206.232 28.232 206.712 28.232ZM214.455 28.232C215.159 28.232 215.767 28.312 216.279 28.472C216.791 28.632 217.167 28.784 217.407 28.928C217.967 29.28 218.303 29.056 218.415 28.256H218.919C218.887 28.72 218.863 29.28 218.847 29.936C218.831 30.576 218.823 31.44 218.823 32.528H218.319C218.255 31.936 218.111 31.352 217.887 30.776C217.679 30.2 217.367 29.728 216.951 29.36C216.535 28.976 215.991 28.784 215.319 28.784C214.887 28.784 214.519 28.912 214.215 29.168C213.927 29.424 213.783 29.776 213.783 30.224C213.783 30.704 213.927 31.128 214.215 31.496C214.503 31.864 214.871 32.216 215.319 32.552C215.783 32.888 216.247 33.248 216.711 33.632C217.223 34.016 217.679 34.408 218.079 34.808C218.495 35.192 218.823 35.616 219.063 36.08C219.319 36.528 219.447 37.072 219.447 37.712C219.447 38.432 219.231 39.064 218.799 39.608C218.367 40.152 217.799 40.576 217.095 40.88C216.391 41.184 215.607 41.336 214.743 41.336C214.215 41.336 213.751 41.28 213.351 41.168C212.967 41.072 212.647 40.944 212.391 40.784C212.151 40.672 211.935 40.576 211.743 40.496C211.567 40.416 211.391 40.36 211.215 40.328C211.055 40.312 210.919 40.384 210.807 40.544C210.695 40.704 210.607 40.912 210.543 41.168H210.039C210.071 40.656 210.095 40.032 210.111 39.296C210.127 38.56 210.135 37.584 210.135 36.368H210.639C210.735 37.232 210.911 37.992 211.167 38.648C211.439 39.304 211.799 39.824 212.247 40.208C212.695 40.576 213.223 40.76 213.831 40.76C214.103 40.76 214.351 40.712 214.575 40.616C214.815 40.504 215.007 40.336 215.151 40.112C215.311 39.888 215.391 39.6 215.391 39.248C215.391 38.544 215.167 37.96 214.719 37.496C214.271 37.016 213.719 36.496 213.063 35.936C212.551 35.504 212.071 35.08 211.623 34.664C211.191 34.248 210.831 33.792 210.543 33.296C210.271 32.8 210.135 32.24 210.135 31.616C210.135 30.896 210.335 30.288 210.735 29.792C211.151 29.28 211.687 28.896 212.343 28.64C212.999 28.368 213.703 28.232 214.455 28.232Z" fill="white"/>
</svg>
