<svg width="106" height="107" viewBox="0 0 106 107" fill="none" xmlns="http://www.w3.org/2000/svg">
<path d="M4.28125 106.094C3.60938 106.031 2.82422 106 1.92578 106H1L6.09766 91.7148C6.32422 91.0742 6.4375 90.7031 6.4375 90.6016C6.4375 90.4922 6.43359 90.4258 6.42578 90.4023L6.4375 90.3789C6.94531 90.4023 7.48438 90.4141 8.05469 90.4141C8.52344 90.4141 9.08594 90.4062 9.74219 90.3906L9.75391 90.4141C9.73828 90.4453 9.73047 90.4883 9.73047 90.543C9.73047 90.6914 9.84766 91.0859 10.082 91.7266L15.2852 106.035C15.1289 106.027 14.9453 106.023 14.7344 106.023C14.7344 106.023 14.5312 106.016 14.125 106C13.9297 106 13.7539 106 13.5977 106H11.7812L10.6797 102.625H5.38281L4.28125 106.094ZM9.76562 99.8125L7.99609 94.3633L6.27344 99.8125H9.76562Z" fill="white"/>
<path d="M24.0438 91.4688C24.0438 91.2109 24.032 90.8594 24.0086 90.4141H35.118L28.2977 103.188H32.5516C33.6609 103.188 34.3133 103.156 34.5086 103.094C34.7117 103.023 34.8719 102.961 34.9891 102.906V106.176C34.6531 106.145 34.3758 106.117 34.157 106.094C33.9383 106.07 33.7078 106.051 33.4656 106.035C33.0984 106.012 32.3875 106 31.3328 106H23.4461L30.5008 93.2266H26.8094C25.2859 93.2266 24.3172 93.3086 23.9031 93.4727C23.9969 93.082 24.0438 92.5312 24.0438 91.8203V91.4688Z" fill="white"/>
<path d="M54.4117 90.3555C54.8961 90.3945 55.2984 90.4141 55.6188 90.4141H56.5914C56.9195 90.4141 57.2633 90.3828 57.6227 90.3203V100.012C57.6227 101.934 57.0406 103.477 55.8766 104.641C54.775 105.742 53.3922 106.293 51.7281 106.293C49.9078 106.293 48.4352 105.82 47.3102 104.875C46.0523 103.812 45.4234 102.281 45.4234 100.281V90.3555C46.0719 90.3945 46.6813 90.4141 47.2516 90.4141C47.8297 90.4141 48.3063 90.3828 48.6813 90.3203V100.434C48.6813 101.418 48.982 102.184 49.5836 102.73C50.1461 103.23 50.8492 103.48 51.693 103.48C52.943 103.48 53.775 102.84 54.1891 101.559C54.3375 101.098 54.4117 100.527 54.4117 99.8477V90.3555Z" fill="white"/>
<path d="M70.0375 104.148C69.3266 103.469 68.7641 102.652 68.35 101.699C67.9437 100.746 67.7406 99.7031 67.7406 98.5703C67.7406 97.4297 67.932 96.3516 68.3148 95.3359C68.6977 94.3203 69.2445 93.4258 69.9555 92.6523C70.6664 91.8789 71.5258 91.2656 72.5336 90.8125C73.5414 90.3516 74.6703 90.1211 75.9203 90.1211C78.0766 90.1211 79.893 90.8008 81.3695 92.1602C82.9477 93.6133 83.7367 95.5742 83.7367 98.043C83.7367 100.434 82.9242 102.422 81.2992 104.008C80.2992 104.984 79.1078 105.656 77.725 106.023C77.0453 106.203 76.2484 106.293 75.3344 106.293C74.4281 106.293 73.4945 106.105 72.5336 105.73C71.5805 105.355 70.7484 104.828 70.0375 104.148ZM70.9984 98.4062C70.9984 99.1328 71.1195 99.8008 71.3617 100.41C71.6039 101.02 71.9398 101.543 72.3695 101.98C73.2836 102.902 74.4594 103.363 75.8969 103.363C77.2641 103.363 78.3617 102.922 79.1898 102.039C80.0336 101.125 80.4555 99.8789 80.4555 98.3008C80.4555 96.8164 80.0531 95.5781 79.2484 94.5859C78.3812 93.5234 77.1937 92.9922 75.6859 92.9922C74.225 92.9922 73.0648 93.5312 72.2055 94.6094C71.4008 95.6172 70.9984 96.8828 70.9984 98.4062Z" fill="white"/>
<path d="M103.37 91.2812L103.148 94.7266L103.066 94.75C102.488 93.8828 101.503 93.3203 100.113 93.0625C99.675 92.9766 99.2531 92.9336 98.8469 92.9336C98.4484 92.9336 98.1047 92.9688 97.8156 93.0391C97.5344 93.1094 97.2922 93.2109 97.0891 93.3438C96.6594 93.625 96.4445 93.9922 96.4445 94.4453C96.4445 95.0391 96.632 95.4844 97.007 95.7812C97.4758 96.1406 98.2531 96.3945 99.3391 96.543C100.425 96.6836 101.296 96.8789 101.952 97.1289C102.609 97.3789 103.148 97.6953 103.57 98.0781C104.366 98.7969 104.765 99.8125 104.765 101.125C104.765 102.844 104.116 104.168 102.82 105.098C101.71 105.895 100.312 106.293 98.6242 106.293C97.2648 106.293 95.9211 106.035 94.593 105.52C94.1555 105.348 93.7727 105.148 93.4445 104.922L93.5734 101.008L93.6203 100.973C94.5891 102.645 96.1789 103.48 98.3898 103.48C99.9602 103.48 100.999 103.102 101.507 102.344C101.679 102.086 101.765 101.801 101.765 101.488C101.765 101.168 101.714 100.906 101.613 100.703C101.511 100.492 101.343 100.312 101.109 100.164C100.655 99.8672 99.8938 99.668 98.8234 99.5664C97.7531 99.4648 96.8781 99.2734 96.1984 98.9922C95.5188 98.7109 94.9758 98.3633 94.5695 97.9492C93.8352 97.1992 93.468 96.1523 93.468 94.8086C93.468 93.418 93.9563 92.293 94.9328 91.4336C95.925 90.5586 97.2609 90.1211 98.9406 90.1211C100.628 90.1211 102.105 90.5078 103.37 91.2812Z" fill="white"/>
<path d="M85.6289 79L47.6289 14H55.1289V2L100.629 79H85.6289Z" fill="white"/>
<path d="M47.6289 13L54.1289 2V13H47.6289Z" fill="#D9D9D9"/>
<path d="M51.6289 25H35.1289L5.12891 78.5H48.6289L58.6289 65.5L51.6289 51L41.1289 65.5H27.6289L51.6289 25Z" fill="white"/>
<path d="M38.6289 31.5L49.6289 28L27.6289 65.5H41.1289L49.6289 53.5V65.5L45.6289 72H16.1289L38.6289 31.5Z" fill="url(#paint0_linear_324_124)"/>
<path d="M41.1289 65.5L51.6289 51L58.6289 65.5L48.6289 78.5H5.12891L35.1289 25H51.6289L27.6289 65.5M41.1289 65.5H27.6289M41.1289 65.5L49.6289 53.5V65.5L45.6289 72H16.1289L38.6289 31.5L49.6289 28L27.6289 65.5M4.28125 106.094C3.60938 106.031 2.82422 106 1.92578 106H1L6.09766 91.7148C6.32422 91.0742 6.4375 90.7031 6.4375 90.6016C6.4375 90.4922 6.43359 90.4258 6.42578 90.4023L6.4375 90.3789C6.94531 90.4023 7.48438 90.4141 8.05469 90.4141C8.52344 90.4141 9.08594 90.4062 9.74219 90.3906L9.75391 90.4141C9.73828 90.4453 9.73047 90.4883 9.73047 90.543C9.73047 90.6914 9.84766 91.0859 10.082 91.7266L15.2852 106.035C15.1289 106.027 14.9453 106.023 14.7344 106.023C14.7344 106.023 14.5312 106.016 14.125 106C13.9297 106 13.7539 106 13.5977 106H11.7812L10.6797 102.625H5.38281L4.28125 106.094ZM9.76562 99.8125L7.99609 94.3633L6.27344 99.8125H9.76562ZM24.0438 91.4688C24.0438 91.2109 24.032 90.8594 24.0086 90.4141H35.118L28.2977 103.188H32.5516C33.6609 103.188 34.3133 103.156 34.5086 103.094C34.7117 103.023 34.8719 102.961 34.9891 102.906V106.176C34.6531 106.145 34.3758 106.117 34.157 106.094C33.9383 106.07 33.7078 106.051 33.4656 106.035C33.0984 106.012 32.3875 106 31.3328 106H23.4461L30.5008 93.2266H26.8094C25.2859 93.2266 24.3172 93.3086 23.9031 93.4727C23.9969 93.082 24.0438 92.5312 24.0438 91.8203V91.4688ZM54.4117 90.3555C54.8961 90.3945 55.2984 90.4141 55.6188 90.4141H56.5914C56.9195 90.4141 57.2633 90.3828 57.6227 90.3203V100.012C57.6227 101.934 57.0406 103.477 55.8766 104.641C54.775 105.742 53.3922 106.293 51.7281 106.293C49.9078 106.293 48.4352 105.82 47.3102 104.875C46.0523 103.812 45.4234 102.281 45.4234 100.281V90.3555C46.0719 90.3945 46.6813 90.4141 47.2516 90.4141C47.8297 90.4141 48.3063 90.3828 48.6813 90.3203V100.434C48.6813 101.418 48.982 102.184 49.5836 102.73C50.1461 103.23 50.8492 103.48 51.693 103.48C52.943 103.48 53.775 102.84 54.1891 101.559C54.3375 101.098 54.4117 100.527 54.4117 99.8477V90.3555ZM70.0375 104.148C69.3266 103.469 68.7641 102.652 68.35 101.699C67.9437 100.746 67.7406 99.7031 67.7406 98.5703C67.7406 97.4297 67.932 96.3516 68.3148 95.3359C68.6977 94.3203 69.2445 93.4258 69.9555 92.6523C70.6664 91.8789 71.5258 91.2656 72.5336 90.8125C73.5414 90.3516 74.6703 90.1211 75.9203 90.1211C78.0766 90.1211 79.893 90.8008 81.3695 92.1602C82.9477 93.6133 83.7367 95.5742 83.7367 98.043C83.7367 100.434 82.9242 102.422 81.2992 104.008C80.2992 104.984 79.1078 105.656 77.725 106.023C77.0453 106.203 76.2484 106.293 75.3344 106.293C74.4281 106.293 73.4945 106.105 72.5336 105.73C71.5805 105.355 70.7484 104.828 70.0375 104.148ZM70.9984 98.4062C70.9984 99.1328 71.1195 99.8008 71.3617 100.41C71.6039 101.02 71.9398 101.543 72.3695 101.98C73.2836 102.902 74.4594 103.363 75.8969 103.363C77.2641 103.363 78.3617 102.922 79.1898 102.039C80.0336 101.125 80.4555 99.8789 80.4555 98.3008C80.4555 96.8164 80.0531 95.5781 79.2484 94.5859C78.3812 93.5234 77.1937 92.9922 75.6859 92.9922C74.225 92.9922 73.0648 93.5312 72.2055 94.6094C71.4008 95.6172 70.9984 96.8828 70.9984 98.4062ZM103.37 91.2812L103.148 94.7266L103.066 94.75C102.488 93.8828 101.503 93.3203 100.113 93.0625C99.675 92.9766 99.2531 92.9336 98.8469 92.9336C98.4484 92.9336 98.1047 92.9688 97.8156 93.0391C97.5344 93.1094 97.2922 93.2109 97.0891 93.3438C96.6594 93.625 96.4445 93.9922 96.4445 94.4453C96.4445 95.0391 96.632 95.4844 97.007 95.7812C97.4758 96.1406 98.2531 96.3945 99.3391 96.543C100.425 96.6836 101.296 96.8789 101.952 97.1289C102.609 97.3789 103.148 97.6953 103.57 98.0781C104.366 98.7969 104.765 99.8125 104.765 101.125C104.765 102.844 104.116 104.168 102.82 105.098C101.71 105.895 100.312 106.293 98.6242 106.293C97.2648 106.293 95.9211 106.035 94.593 105.52C94.1555 105.348 93.7727 105.148 93.4445 104.922L93.5734 101.008L93.6203 100.973C94.5891 102.645 96.1789 103.48 98.3898 103.48C99.9602 103.48 100.999 103.102 101.507 102.344C101.679 102.086 101.765 101.801 101.765 101.488C101.765 101.168 101.714 100.906 101.613 100.703C101.511 100.492 101.343 100.312 101.109 100.164C100.655 99.8672 99.8938 99.668 98.8234 99.5664C97.7531 99.4648 96.8781 99.2734 96.1984 98.9922C95.5188 98.7109 94.9758 98.3633 94.5695 97.9492C93.8352 97.1992 93.468 96.1523 93.468 94.8086C93.468 93.418 93.9563 92.293 94.9328 91.4336C95.925 90.5586 97.2609 90.1211 98.9406 90.1211C100.628 90.1211 102.105 90.5078 103.37 91.2812ZM85.6289 79L47.6289 14H55.1289V2L100.629 79H85.6289ZM47.6289 13L54.1289 2V13H47.6289Z" stroke="white"/>
<defs>
<linearGradient id="paint0_linear_324_124" x1="32.8789" y1="28" x2="32.8789" y2="72" gradientUnits="userSpaceOnUse">
<stop stop-color="#CCCCCC"/>
<stop offset="1" stop-color="#BBBBBB" stop-opacity="0"/>
</linearGradient>
</defs>
</svg>
